<svg viewBox="0 0 337 66" xmlns="http://www.w3.org/2000/svg">
    <style>
        #socialite { fill: #2e2e2e } @media (prefers-color-scheme:dark) { #socialite { fill: #fff } }
    </style>
    <path fill-rule="evenodd" clip-rule="evenodd" d="M28 58.8V32L0 4V0H64V4L36 32V58.8L52 62V66H12V62L28 58.8ZM42 16.3C45.3 16.3 48 13.6 48 10.3C48 7 45.3 4.3 42 4.3C38.7 4.3 36 7 36 10.3C36 13.6 38.7 16.3 42 16.3Z" fill="url(#gradient)"/>
    <path id="socialite" fill-rule="evenodd" clip-rule="evenodd" d="M221.9 40.7C221.9 39.3 221.4 38.2 220.4 37.3C219.4 36.5 217.6 35.7 214.9 34.9C212.3 34.2 210.3 33.3 209.1 32.5C207.4 31.3 206.5 29.6 206.5 27.6C206.5 25.6 207.3 24.1 208.9 22.8C210.5 21.6 212.6 21 215.1 21C216.8 21 218.3 21.3 219.7 22C221 22.7 222.1 23.6 222.8 24.7C223.5 25.9 223.9 27.2 223.9 28.6H221.7C221.7 26.9 221.1 25.5 219.9 24.4C218.7 23.3 217.1 22.8 215.1 22.8C213.1 22.8 211.6 23.2 210.4 24.1C209.2 25 208.7 26.1 208.7 27.5C208.7 28.8 209.2 29.9 210.3 30.7C211.3 31.5 213 32.2 215.3 32.9C217.6 33.5 219.3 34.2 220.5 34.9C221.7 35.6 222.6 36.4 223.2 37.3C223.8 38.2 224.1 39.3 224.1 40.6C224.1 42.6 223.3 44.2 221.7 45.4C220.1 46.6 218 47.2 215.3 47.2C213.5 47.2 211.8 46.9 210.3 46.2C208.8 45.6 207.7 44.7 206.9 43.5C206.1 42.3 205.7 41 205.7 39.5H207.9C207.9 41.3 208.6 42.7 209.9 43.8C211.2 44.8 213 45.4 215.3 45.4C217.3 45.4 218.9 45 220.1 44.1C221.3 43.3 221.9 42.2 221.9 40.7ZM227.1 37.2C227.1 35.4 227.5 33.7 228.2 32.3C228.9 30.8 229.9 29.7 231.2 28.9C232.5 28.1 234 27.7 235.6 27.7C238.1 27.7 240.2 28.6 241.8 30.4C243.4 32.2 244.2 34.5 244.2 37.5V37.9C244.2 39.7 243.8 41.4 243.1 42.9C242.4 44.4 241.4 45.5 240.1 46.3C238.8 47.1 237.3 47.5 235.7 47.5C233.2 47.5 231.1 46.6 229.6 44.8C228 43 227.2 40.7 227.2 37.7L227.1 37.2ZM229.2 37.8C229.2 40.1 229.8 41.9 231 43.4C232.2 44.9 233.7 45.6 235.6 45.6C237.5 45.6 239 44.9 240.2 43.4C241.4 41.9 242 40 242 37.6V37.2C242 35.7 241.7 34.4 241.2 33.2C240.7 32 239.9 31.1 238.9 30.4C237.9 29.7 236.8 29.4 235.6 29.4C233.7 29.4 232.2 30.1 231 31.6C229.8 33.1 229.2 35 229.2 37.4V37.8ZM255.4 45.6C256.9 45.6 258.1 45.2 259.1 44.4C260.1 43.6 260.6 42.5 260.7 41.2H262.7C262.6 42.4 262.3 43.4 261.6 44.4C260.9 45.4 260 46.1 258.9 46.6C257.8 47.1 256.6 47.4 255.3 47.4C252.8 47.4 250.8 46.5 249.4 44.8C247.9 43.1 247.2 40.7 247.2 37.8V37.2C247.2 35.3 247.5 33.7 248.2 32.2C248.9 30.8 249.8 29.6 251 28.9C252.2 28.1 253.7 27.7 255.3 27.7C257.4 27.7 259.1 28.3 260.5 29.6C261.9 30.8 262.6 32.5 262.7 34.5H260.7C260.6 33 260.1 31.8 259.1 30.9C258.1 30 256.9 29.5 255.4 29.5C253.5 29.5 252 30.2 251 31.6C249.9 33 249.4 34.9 249.4 37.4V38C249.4 40.4 249.9 42.3 251 43.7C252 44.9 253.5 45.6 255.4 45.6ZM269.3 47H267.2V28H269.3V47ZM266.8 22.5C266.8 22.1 266.9 21.8 267.2 21.5C267.5 21.2 267.8 21.1 268.3 21.1C268.8 21.1 269.1 21.2 269.4 21.5C269.7 21.8 269.8 22.1 269.8 22.5C269.8 22.9 269.7 23.2 269.4 23.5C269.1 23.8 268.8 23.9 268.3 23.9C267.9 23.9 267.5 23.8 267.2 23.5C266.9 23.2 266.8 22.9 266.8 22.5ZM287 47C286.8 46.4 286.7 45.5 286.6 44.3C285.9 45.3 284.9 46 283.8 46.5C282.7 47 281.4 47.3 280.2 47.3C278.4 47.3 276.9 46.8 275.8 45.8C274.7 44.8 274.1 43.5 274.1 41.9C274.1 40.1 274.9 38.6 276.4 37.5C277.9 36.4 280.1 35.9 282.8 35.9H286.6V33.7C286.6 32.3 286.2 31.3 285.3 30.5C284.5 29.7 283.2 29.3 281.6 29.3C280.1 29.3 278.9 29.7 278 30.4C277 31.2 276.6 32.1 276.6 33.1H274.5C274.5 31.6 275.2 30.3 276.6 29.2C278 28.1 279.7 27.5 281.8 27.5C283.9 27.5 285.6 28 286.8 29.1C288 30.2 288.7 31.6 288.7 33.5V42.5C288.7 44.3 288.9 45.7 289.3 46.6V47H287ZM280.4 45.5C281.8 45.5 283.1 45.2 284.2 44.5C285.3 43.8 286.1 42.9 286.6 41.8V37.6H282.8C280.7 37.6 279.1 38 277.9 38.8C276.7 39.5 276.1 40.6 276.1 41.9C276.1 43 276.5 43.9 277.3 44.6C278.1 45.1 279.1 45.5 280.4 45.5ZM296.6 47H294.5V20H296.6V47ZM304.7 47H302.6V28H304.7V47ZM302.2 22.5C302.2 22.1 302.3 21.8 302.6 21.5C302.9 21.2 303.2 21.1 303.7 21.1C304.2 21.1 304.5 21.2 304.8 21.5C305.1 21.8 305.2 22.1 305.2 22.5C305.2 22.9 305.1 23.2 304.8 23.5C304.5 23.8 304.2 23.9 303.7 23.9C303.2 23.9 302.9 23.8 302.6 23.5C302.3 23.2 302.2 22.9 302.2 22.5ZM313.7 23.1V28H317.6V29.7H313.7V42.4C313.7 43.5 313.9 44.2 314.3 44.8C314.7 45.3 315.3 45.6 316.2 45.6C316.6 45.6 317.1 45.5 317.9 45.4L318 47.1C317.4 47.3 316.7 47.4 315.8 47.4C314.4 47.4 313.3 47 312.7 46.1C312.1 45.2 311.7 44 311.7 42.4V29.7H308.2V28H311.7V23.1H313.7ZM329.4 47.4C327.8 47.4 326.3 47 325 46.2C323.7 45.4 322.7 44.3 322 42.9C321.3 41.5 320.9 39.9 320.9 38.1V37.3C320.9 35.5 321.3 33.8 322 32.4C322.7 30.9 323.7 29.8 325 28.9C326.3 28.1 327.6 27.6 329.1 27.6C331.4 27.6 333.2 28.4 334.6 30C336 31.6 336.6 33.7 336.6 36.5V37.7H323V38C323 40.2 323.6 42 324.9 43.4C326.1 44.8 327.7 45.6 329.6 45.6C330.7 45.6 331.7 45.4 332.6 45C333.5 44.6 334.2 43.9 334.9 43L336.2 44C334.5 46.2 332.3 47.4 329.4 47.4ZM329 29.4C327.4 29.4 326.1 30 325 31.1C323.9 32.3 323.3 33.8 323 35.8H334.4V35.6C334.3 33.8 333.8 32.3 332.8 31.1C331.8 30 330.6 29.4 329 29.4Z"/>
    <path id="socialite" d="M85.6 42.8V21.4H80.3V47H96.8V42.8H85.6ZM114.8 34.4C114.8 32.3 114.1 30.6 112.7 29.4C111.3 28.2 109.5 27.6 107.1 27.6C105.6 27.6 104.2 27.9 102.9 28.4C101.7 28.9 100.7 29.7 100 30.6C99.3 31.5 99 32.6 99 33.7H104.1C104.1 33 104.3 32.4 104.8 32C105.3 31.6 106 31.4 106.8 31.4C107.8 31.4 108.5 31.7 108.9 32.2C109.4 32.7 109.6 33.4 109.6 34.3V35.4H107.3C104.5 35.4 102.3 36 100.8 37C99.3 38.1 98.6 39.6 98.6 41.6C98.6 43.2 99.2 44.6 100.4 45.7C101.6 46.8 103.2 47.3 105 47.3C107 47.3 108.6 46.6 109.8 45.2C109.9 45.9 110.1 46.4 110.3 46.9H115.4V46.6C114.9 45.7 114.7 44.3 114.6 42.5V34.4H114.8ZM109.7 41.6C109.4 42.2 108.9 42.6 108.3 42.9C107.7 43.2 107 43.4 106.2 43.4C105.4 43.4 104.8 43.2 104.4 42.8C104 42.4 103.7 41.9 103.7 41.2V40.9C103.9 39.1 105.2 38.3 107.8 38.3H109.7V41.6ZM123.7 30.2L123.6 27.9H118.8V46.9H123.9V34.6C124.5 33.3 125.8 32.6 127.7 32.6C128.2 32.6 128.8 32.6 129.5 32.7L129.6 27.8C129.1 27.6 128.6 27.6 128 27.6C126.1 27.6 124.7 28.5 123.7 30.2ZM146.7 34.4C146.7 32.3 146 30.6 144.6 29.4C143.2 28.2 141.4 27.6 139 27.6C137.5 27.6 136.1 27.9 134.8 28.4C133.6 28.9 132.6 29.7 131.9 30.6C131.2 31.5 130.9 32.6 130.9 33.7H136C136 33 136.2 32.4 136.7 32C137.2 31.6 137.9 31.4 138.7 31.4C139.7 31.4 140.4 31.7 140.8 32.2C141.3 32.7 141.5 33.4 141.5 34.3V35.4H139.2C136.4 35.4 134.2 36 132.7 37C131.2 38.1 130.5 39.6 130.5 41.6C130.5 43.2 131.1 44.6 132.3 45.7C133.5 46.8 135.1 47.3 136.9 47.3C138.9 47.3 140.5 46.6 141.7 45.2C141.8 45.9 142 46.4 142.2 46.9H147.3V46.6C146.8 45.7 146.6 44.3 146.5 42.5V34.4H146.7ZM141.7 41.6C141.4 42.2 140.9 42.6 140.3 42.9C139.7 43.2 139 43.4 138.2 43.4C137.4 43.4 136.8 43.2 136.4 42.8C136 42.4 135.7 41.9 135.7 41.2V40.9C135.9 39.1 137.2 38.3 139.8 38.3H141.7V41.6ZM157.5 40.8L154 28H148.7L155.1 47H159.9L166.3 28H161L157.5 40.8ZM176.5 27.6C174.8 27.6 173.2 28 171.9 28.8C170.5 29.6 169.5 30.8 168.8 32.3C168.1 33.8 167.7 35.5 167.7 37.4V37.9C167.7 40.7 168.6 43 170.3 44.7C172.1 46.4 174.3 47.3 177.1 47.3C178.7 47.3 180.1 47 181.4 46.4C182.7 45.8 183.7 45 184.5 43.9L182 41.1C180.9 42.5 179.4 43.2 177.4 43.2C176.1 43.2 175.1 42.8 174.3 42.1C173.5 41.3 173 40.4 172.8 39.1H184.9V37C184.9 34 184.2 31.7 182.7 30C181.2 28.3 179.1 27.6 176.5 27.6ZM179.9 35.7H172.8C173 34.4 173.4 33.5 174 32.8C174.6 32.1 175.4 31.8 176.5 31.8C177.6 31.8 178.4 32.1 179 32.7C179.6 33.3 179.9 34.2 179.9 35.3V35.7ZM188.1 20H193.2V47H188.1V20Z"/>
    <defs>
        <linearGradient id="gradient" x1="32.008" y1="0.002" x2="32.008" y2="66.002" gradientUnits="userSpaceOnUse">
            <stop stop-color="#E99CB7"/>
            <stop offset="1" stop-color="#BC62CE"/>
        </linearGradient>
    </defs>
</svg>
