<svg xmlns="http://www.w3.org/2000/svg" width="346" height="70" viewBox="0 0 346 70"><style>.st0{fill-rule:evenodd;clip-rule:evenodd;fill:#fff}.st4{fill:#2e2e2e}</style><path class="st0" d="M317.7 50.9c-1.9 0-3.4-.6-4.3-1.8-.9-1.1-1.3-2.7-1.3-4.6V33.2h-3.5v-4.7h3.5v-4.9h5.1v4.9h3.9v4.7h-3.9v11.2c0 1 .2 1.4.3 1.5.1.1.3.2.7.2.2 0 .5 0 1.5-.2l1.6-.2.2 4.5-1 .4c-.7.1-1.7.3-2.8.3zm-100.4 0c-2 0-3.9-.4-5.6-1.1-1.8-.8-3.1-1.9-4.1-3.2-.9-1.4-1.4-3-1.4-4.8v-1.5h5.2v1.5c0 1.3.5 2.3 1.4 3.1 1.1.8 2.6 1.3 4.5 1.3 1.7 0 3-.3 3.9-1 .8-.6 1.2-1.3 1.2-2.3v-.1c0-.9-.3-1.6-1-2.1-.6-.5-1.9-1.2-4.9-2.1-2.8-.8-4.9-1.7-6.3-2.7-2.1-1.5-3.2-3.6-3.2-6.1 0-2.4 1-4.4 3-6 1.9-1.4 4.3-2.1 7.1-2.1 1.9 0 3.7.4 5.2 1.1 1.6.8 2.8 1.9 3.7 3.3.9 1.4 1.3 3 1.3 4.7v1.5h-5.2v-1.5c0-1.3-.4-2.3-1.3-3.1-.9-.8-2.2-1.2-3.8-1.2-1.6 0-2.9.3-3.8 1-.8.6-1.1 1.3-1.1 2.2 0 .8.3 1.5 1 2 .9.7 2.4 1.3 4.5 1.9 2.4.7 4.3 1.4 5.6 2.1 1.4.8 2.5 1.8 3.2 2.9.8 1.2 1.1 2.6 1.1 4.1 0 2.5-1 4.5-3 6-1.8 1.4-4.3 2.2-7.2 2.2zm114.1 0c-1.9 0-3.6-.5-5.2-1.4-1.5-.9-2.8-2.3-3.6-3.9-.8-1.6-1.3-3.5-1.3-5.5v-.8c0-2 .4-3.9 1.2-5.6.8-1.7 2-3.1 3.5-4.1 1.5-1 3.2-1.5 4.9-1.5 2.8 0 5 1 6.6 2.9 1.6 1.8 2.4 4.4 2.4 7.4v2.7h-13.5c.2 1.3.6 2.4 1.4 3.3.9 1.1 2.1 1.6 3.5 1.6.9 0 1.7-.2 2.3-.5.6-.3 1.3-.8 1.8-1.5l.9-1.2 3.6 2.8-.8 1.2c-1.6 2.7-4.3 4.1-7.7 4.1zm3.3-14.6c-.2-.9-.5-1.6-1.1-2.2-.7-.8-1.6-1.2-2.7-1.2-1.2 0-2.1.4-2.9 1.3-.5.6-.9 1.3-1.2 2.2h7.9zm-52.6 14.6c-2.2 0-4-.6-5.4-1.9-1.5-1.3-2.2-3-2.2-5 0-2.3 1-4.3 3-5.6 1.8-1.3 4.2-1.9 7.3-1.9h2.3v-.7c0-.9-.2-1.6-.8-2.1-.5-.5-1.4-.8-2.6-.8-1.1 0-2 .3-2.7.8-.8.6-.9 1.1-.9 1.5v1.5H275v-1.5c0-2 .9-3.7 2.7-5.1 1.7-1.3 3.7-2 6.1-2 2.5 0 4.5.7 6 2 1.6 1.3 2.4 3.2 2.4 5.5v9c0 2 .3 3 .5 3.5l.1.3v2H288s-.4-1.1-.4-1.2c-.4.2-.7.4-1.1.6-1.4.7-2.9 1.1-4.4 1.1zm2.7-9.8c-1.8 0-3.2.3-4.1.9-.7.5-1.1 1-1.1 1.8 0 .6.2 1.1.7 1.5.5.5 1.2.7 2.1.7 1.1 0 2.1-.3 3-.8.8-.5 1.3-1.1 1.7-1.8v-2.3h-2.3zm-47.2 9.8c-3 0-5.4-1.1-7.3-3.2-1.8-2-2.7-4.8-2.7-8.1v-.4c0-2 .4-3.9 1.2-5.6.8-1.7 2-3.1 3.6-4 1.5-1 3.3-1.5 5.2-1.5 3 0 5.4 1.1 7.3 3.2 1.8 2 2.7 4.8 2.7 8.1v.4c0 2.1-.4 3.9-1.2 5.6-.8 1.7-2 3.1-3.6 4-1.6 1-3.3 1.5-5.2 1.5zm-4.9-11c0 1.9.5 3.3 1.4 4.5.9 1.1 2 1.6 3.5 1.6s2.5-.5 3.4-1.6c1-1.2 1.4-2.8 1.4-4.8v-.4c0-1.2-.2-2.4-.7-3.4-.4-1-1-1.7-1.7-2.2-.7-.5-1.5-.7-2.5-.7-1.4 0-2.5.5-3.4 1.6-1 1.2-1.4 2.8-1.4 4.8v.6zm24.7 10.9c-2.9 0-5.3-1.1-7.1-3.1-1.7-2-2.5-4.7-2.5-8v-.6c0-2.1.4-4 1.1-5.6.8-1.7 1.9-3 3.4-4 1.5-.9 3.2-1.4 5.1-1.4 2.5 0 4.5.8 6.2 2.3 1.6 1.5 2.5 3.5 2.7 5.9l.1 1.6h-5l-.1-1.4c-.1-1.1-.4-2-1.1-2.6-.7-.7-1.6-1-2.7-1-1.4 0-2.5.5-3.2 1.5-.8 1.1-1.3 2.7-1.3 4.9v.6c0 2.1.4 3.7 1.3 4.8.8 1 1.8 1.5 3.3 1.5h.2c1 0 1.9-.3 2.6-.9.7-.6 1-1.2 1.1-2.1l.1-1.4h5l-.1 1.6c-.1 1.4-.5 2.8-1.4 4-.8 1.2-1.9 2.1-3.2 2.7-1.6.4-3 .7-4.5.7zm45.7-.3v-22h5.1v22h-5.1zm-8.1 0v-30h5.1v30H295zm-27.3 0v-22h5.1v22h-5.1zm38-23.1c-1.1 0-1.8-.5-2.1-.9-.2-.2-.3-.3-.4-.5h-.4v-1.5c0-.8.3-1.5.8-2 .4-.4 1.1-.9 2.1-.9 1.1 0 1.8.5 2.1.9.5.6.8 1.3.8 2 0 .8-.3 1.5-.8 2.1-.4.3-1.1.8-2.1.8zm-35.5 0c-1.1 0-1.8-.5-2.1-.9-.5-.5-.8-1.3-.8-2 0-.8.3-1.5.8-2 .4-.4 1.1-.9 2.1-.9 1.1 0 1.8.5 2.1.9.5.6.8 1.3.8 2 0 .8-.3 1.5-.8 2.1-.3.3-1 .8-2.1.8z"/><path d="M223.9 42.7c0-1.4-.5-2.5-1.5-3.4-1-.8-2.8-1.6-5.5-2.4-2.6-.7-4.6-1.6-5.8-2.4-1.7-1.2-2.6-2.9-2.6-4.9 0-2 .8-3.5 2.4-4.8 1.6-1.2 3.7-1.8 6.2-1.8 1.7 0 3.2.3 4.6 1 1.3.7 2.4 1.6 3.1 2.7.7 1.2 1.1 2.5 1.1 3.9h-2.2c0-1.7-.6-3.1-1.8-4.2-1.2-1.1-2.8-1.6-4.8-1.6s-3.5.4-4.7 1.3c-1.2.9-1.7 2-1.7 3.4 0 1.3.5 2.4 1.6 3.2 1 .8 2.7 1.5 5 2.2 2.3.6 4 1.3 5.2 2 1.2.7 2.1 1.5 2.7 2.4.6.9.9 2 .9 3.3 0 2-.8 3.6-2.4 4.8-1.6 1.2-3.7 1.8-6.4 1.8-1.8 0-3.5-.3-5-1-1.5-.6-2.6-1.5-3.4-2.7-.8-1.2-1.2-2.5-1.2-4h2.2c0 1.8.7 3.2 2 4.3 1.3 1 3.1 1.6 5.4 1.6 2 0 3.6-.4 4.8-1.3 1.2-.8 1.8-1.9 1.8-3.4zm5.2-3.5c0-1.8.4-3.5 1.1-4.9.7-1.5 1.7-2.6 3-3.4 1.3-.8 2.8-1.2 4.4-1.2 2.5 0 4.6.9 6.2 2.7 1.6 1.8 2.4 4.1 2.4 7.1v.4c0 1.8-.4 3.5-1.1 5-.7 1.5-1.7 2.6-3 3.4-1.3.8-2.8 1.2-4.4 1.2-2.5 0-4.6-.9-6.1-2.7-1.6-1.8-2.4-4.1-2.4-7.1l-.1-.5zm2.1.6c0 2.3.6 4.1 1.8 5.6 1.2 1.5 2.7 2.2 4.6 2.2 1.9 0 3.4-.7 4.6-2.2 1.2-1.5 1.8-3.4 1.8-5.8v-.4c0-1.5-.3-2.8-.8-4-.5-1.2-1.3-2.1-2.3-2.8-1-.7-2.1-1-3.3-1-1.9 0-3.4.7-4.6 2.2-1.2 1.5-1.8 3.4-1.8 5.8v.4zm26.2 7.8c1.5 0 2.7-.4 3.7-1.2 1-.8 1.5-1.9 1.6-3.2h2c-.1 1.2-.4 2.2-1.1 3.2-.7 1-1.6 1.7-2.7 2.2-1.1.5-2.3.8-3.6.8-2.5 0-4.5-.9-5.9-2.6-1.5-1.7-2.2-4.1-2.2-7v-.6c0-1.9.3-3.5 1-5 .7-1.4 1.6-2.6 2.8-3.3 1.2-.8 2.7-1.2 4.3-1.2 2.1 0 3.8.6 5.2 1.9 1.4 1.2 2.1 2.9 2.2 4.9h-2c-.1-1.5-.6-2.7-1.6-3.6-1-.9-2.2-1.4-3.7-1.4-1.9 0-3.4.7-4.4 2.1-1.1 1.4-1.6 3.3-1.6 5.8v.6c0 2.4.5 4.3 1.6 5.7 1 1.2 2.5 1.9 4.4 1.9zm13.9 1.4h-2.1V30h2.1v19zm-2.5-24.5c0-.4.1-.7.4-1 .3-.3.6-.4 1.1-.4s.8.1 1.1.4c.3.3.4.6.4 1s-.1.7-.4 1c-.3.3-.6.4-1.1.4-.4 0-.8-.1-1.1-.4-.3-.3-.4-.6-.4-1zM289 49c-.2-.6-.3-1.5-.4-2.7-.7 1-1.7 1.7-2.8 2.2-1.1.5-2.4.8-3.6.8-1.8 0-3.3-.5-4.4-1.5-1.1-1-1.7-2.3-1.7-3.9 0-1.8.8-3.3 2.3-4.4 1.5-1.1 3.7-1.6 6.4-1.6h3.8v-2.2c0-1.4-.4-2.4-1.3-3.2-.8-.8-2.1-1.2-3.7-1.2-1.5 0-2.7.4-3.6 1.1-1 .8-1.4 1.7-1.4 2.7h-2.1c0-1.5.7-2.8 2.1-3.9 1.4-1.1 3.1-1.7 5.2-1.7s3.8.5 5 1.6c1.2 1.1 1.9 2.5 1.9 4.4v9c0 1.8.2 3.2.6 4.1v.4H289zm-6.6-1.5c1.4 0 2.7-.3 3.8-1 1.1-.7 1.9-1.6 2.4-2.7v-4.2h-3.8c-2.1 0-3.7.4-4.9 1.2-1.2.7-1.8 1.8-1.8 3.1 0 1.1.4 2 1.2 2.7.8.5 1.8.9 3.1.9zm16.2 1.5h-2.1V22h2.1v27zm8.1 0h-2.1V30h2.1v19zm-2.5-24.5c0-.4.1-.7.4-1 .3-.3.6-.4 1.1-.4s.8.1 1.1.4c.3.3.4.6.4 1s-.1.7-.4 1c-.3.3-.6.4-1.1.4s-.8-.1-1.1-.4-.4-.6-.4-1zm11.5.6V30h3.9v1.7h-3.9v12.7c0 1.1.2 1.8.6 2.4.4.5 1 .8 1.9.8.4 0 .9-.1 1.7-.2l.1 1.7c-.6.2-1.3.3-2.2.3-1.4 0-2.5-.4-3.1-1.3s-1-2.1-1-3.7V31.7h-3.5V30h3.5v-4.9h2zm15.7 24.3c-1.6 0-3.1-.4-4.4-1.2-1.3-.8-2.3-1.9-3-3.3-.7-1.4-1.1-3-1.1-4.8v-.8c0-1.8.4-3.5 1.1-4.9.7-1.5 1.7-2.6 3-3.5 1.3-.8 2.6-1.3 4.1-1.3 2.3 0 4.1.8 5.5 2.4 1.4 1.6 2 3.7 2 6.5v1.2H325v.3c0 2.2.6 4 1.9 5.4 1.2 1.4 2.8 2.2 4.7 2.2 1.1 0 2.1-.2 3-.6.9-.4 1.6-1.1 2.3-2l1.3 1c-1.7 2.2-3.9 3.4-6.8 3.4zm-.4-18c-1.6 0-2.9.6-4 1.7-1.1 1.2-1.7 2.7-2 4.7h11.4v-.2c-.1-1.8-.6-3.3-1.6-4.5-1-1.1-2.2-1.7-3.8-1.7z" fill-rule="evenodd" clip-rule="evenodd" fill="#2e2e2e"/><path class="st0" d="M12 70v-7.6l16-3.2V34.8L0 6.8V0h68v6.8l-28 28v24.3l16 3.2V70H12zM44 8.3c-2.2 0-4 1.8-4 4s1.8 4 4 4 4-1.8 4-4-1.8-4-4-4z"/><linearGradient id="SVGID_1_" gradientUnits="userSpaceOnUse" x1="29.047" y1="312.303" x2="29.047" y2="311.303" gradientTransform="matrix(64 0 0 -66 -1825 20614)"><stop offset="0" stop-color="#e99cb7"/><stop offset="1" stop-color="#bc62ce"/></linearGradient><path d="M30 60.8V34L2 6V2h64v4L38 34v26.8L54 64v4H14v-4l16-3.2zm14-42.5c3.3 0 6-2.7 6-6s-2.7-6-6-6-6 2.7-6 6 2.7 6 6 6z" fill-rule="evenodd" clip-rule="evenodd" fill="url(#SVGID_1_)"/><g><path d="M188.1 20v13.9c-.5-1.2-1.1-2.3-1.9-3.2-1.9-2.1-4.4-3.1-7.6-3.1-2.1 0-4 .5-5.7 1.5-1.3.8-2.3 1.8-3.2 3l1.4-4.2h-9.6l-2 7.3-2-7.3h-9.6l.9 2.7c-.2-.3-.5-.6-.8-.8-1.7-1.5-4.1-2.2-6.9-2.2-1.8 0-3.5.3-5 1-1 .4-1.9 1-2.6 1.7v-1.9l-1.4-.4c-.7-.2-1.4-.3-2.2-.3-.7 0-1.6.1-2.5.5v-.1h-8.7v7c-.3-2.1-1.2-3.8-2.7-5.1-1.7-1.5-4.1-2.2-6.9-2.2-1.8 0-3.5.3-5 1-1.6.7-2.8 1.6-3.7 2.9-.9 1.3-1.4 2.7-1.4 4.2v2h2.3c-1.5 1.3-2.4 3-2.6 5.1h-9.2V21.4h-9.3V51h20.5v-2.2l.4.4c1.6 1.4 3.6 2.1 6 2.1.9 0 1.8-.1 2.6-.3h18.1V37.1c.2-.2.7-.5 1.8-.5.4 0 .9 0 1.4.1v1h2.3c-1.8 1.4-2.7 3.5-2.7 6 0 2.2.9 4.1 2.5 5.6 1.6 1.4 3.6 2.1 6 2.1 1.4 0 2.7-.3 3.8-.8l.2.5h8.4v-2.8l-.2-.4c-.2-.4-.5-1.2-.5-3.2v-8.1l4.9 14.5h7.7l4.4-13c0 .5-.1.9-.1 1.4v.5c0 3.4 1.1 6.2 3.2 8.3 2.1 2.1 4.9 3.1 8.2 3.1 1.9 0 3.6-.4 5.2-1.1 1.6-.7 2.8-1.8 3.8-3.1V51h9.1V20h-9.1zm-1.4 23.1h1.4v1.5l-1.4-1.5z" fill="#fff"/><path class="st4" d="M87.6 44.8V23.4h-5.3V49h16.5v-4.2H87.6zM116.8 36.4c0-2.1-.7-3.8-2.1-5-1.4-1.2-3.2-1.8-5.6-1.8-1.5 0-2.9.3-4.2.8-1.2.5-2.2 1.3-2.9 2.2s-1 2-1 3.1h5.1c0-.7.2-1.3.7-1.7.5-.4 1.2-.6 2-.6 1 0 1.7.3 2.1.8.5.5.7 1.2.7 2.1v1.1h-2.3c-2.8 0-5 .6-6.5 1.6-1.5 1.1-2.2 2.6-2.2 4.6 0 1.6.6 3 1.8 4.1 1.2 1.1 2.8 1.6 4.6 1.6 2 0 3.6-.7 4.8-2.1.1.7.3 1.2.5 1.7h5.1v-.3c-.5-.9-.7-2.3-.8-4.1v-8.1zm-5.1 7.2c-.3.6-.8 1-1.4 1.3-.6.3-1.3.5-2.1.5s-1.4-.2-1.8-.6c-.4-.4-.7-.9-.7-1.6v-.3c.2-1.8 1.5-2.6 4.1-2.6h1.9v3.3zM125.7 32.2l-.1-2.3h-4.8v19h5.1V36.6c.6-1.3 1.9-2 3.8-2 .5 0 1.1 0 1.8.1l.1-4.9c-.5-.2-1-.2-1.6-.2-1.9 0-3.3.9-4.3 2.6zM148.7 36.4c0-2.1-.7-3.8-2.1-5-1.4-1.2-3.2-1.8-5.6-1.8-1.5 0-2.9.3-4.2.8-1.2.5-2.2 1.3-2.9 2.2-.7.9-1 2-1 3.1h5.1c0-.7.2-1.3.7-1.7.5-.4 1.2-.6 2-.6 1 0 1.7.3 2.1.8.5.5.7 1.2.7 2.1v1.1h-2.3c-2.8 0-5 .6-6.5 1.6-1.5 1.1-2.2 2.6-2.2 4.6 0 1.6.6 3 1.8 4.1 1.2 1.1 2.8 1.6 4.6 1.6 2 0 3.6-.7 4.8-2.1.1.7.3 1.2.5 1.7h5.1v-.3c-.5-.9-.7-2.3-.8-4.1v-8.1zm-5 7.2c-.3.6-.8 1-1.4 1.3-.6.3-1.3.5-2.1.5s-1.4-.2-1.8-.6c-.4-.4-.7-.9-.7-1.6v-.3c.2-1.8 1.5-2.6 4.1-2.6h1.9v3.3zM159.5 42.8 156 30h-5.3l6.4 19h4.8l6.4-19H163zM178.5 29.6c-1.7 0-3.3.4-4.6 1.2-1.4.8-2.4 2-3.1 3.5-.7 1.5-1.1 3.2-1.1 5.1v.5c0 2.8.9 5.1 2.6 6.8 1.8 1.7 4 2.6 6.8 2.6 1.6 0 3-.3 4.3-.9 1.3-.6 2.3-1.4 3.1-2.5l-2.5-2.8c-1.1 1.4-2.6 2.1-4.6 2.1-1.3 0-2.3-.4-3.1-1.1-.8-.8-1.3-1.7-1.5-3h12.1V39c0-3-.7-5.3-2.2-7s-3.6-2.4-6.2-2.4zm3.4 8.1h-7.1c.2-1.3.6-2.2 1.2-2.9.6-.7 1.4-1 2.5-1s1.9.3 2.5.9c.6.6.9 1.5.9 2.6v.4zM178.5 33.7zM190.1 22h5.1v27h-5.1z"/></g></svg>