<svg xmlns="http://www.w3.org/2000/svg" width="346" height="70" viewBox="0 0 346 70"><defs><linearGradient id="a" x1="50%" x2="50%" y1="0%" y2="100%"><stop stop-color="#E99CB7" offset="0%"/><stop stop-color="#BC62CE" offset="100%"/></linearGradient></defs><g fill="none" fill-rule="evenodd"><path fill="#2E2E2E" d="M87.56 44.764h11.196V49h-16.47V23.406h5.273v21.358zM112.466 49c-.235-.457-.404-1.025-.51-1.705-1.23 1.37-2.83 2.057-4.8 2.057-1.862 0-3.406-.54-4.63-1.618-1.225-1.078-1.838-2.437-1.838-4.078 0-2.015.747-3.562 2.24-4.64 1.495-1.08 3.654-1.623 6.478-1.635h2.338v-1.09c0-.878-.225-1.58-.677-2.108-.452-.528-1.164-.79-2.136-.79-.856 0-1.527.204-2.013.614-.485.41-.73.973-.73 1.687h-5.08c0-1.1.34-2.12 1.02-3.058.68-.938 1.64-1.673 2.884-2.206 1.242-.534 2.636-.8 4.183-.8 2.344 0 4.204.588 5.58 1.766 1.378 1.177 2.067 2.833 2.067 4.965v8.245c.01 1.805.263 3.17.756 4.096v.3h-5.133zm-4.2-3.533c.75 0 1.44-.167 2.073-.5.633-.335 1.1-.783 1.406-1.346v-3.268h-1.898c-2.543 0-3.897.878-4.06 2.636l-.018.3c0 .632.222 1.153.668 1.564.445.41 1.054.615 1.828.615zm23.167-10.723c-.692-.094-1.3-.14-1.83-.14-1.92 0-3.18.65-3.778 1.95V49h-5.08V29.98h4.8l.14 2.268c1.02-1.746 2.43-2.62 4.236-2.62.562 0 1.09.077 1.582.23l-.07 4.886zM144.37 49c-.233-.457-.403-1.025-.51-1.705-1.23 1.37-2.83 2.057-4.798 2.057-1.863 0-3.407-.54-4.63-1.618-1.226-1.078-1.838-2.437-1.838-4.078 0-2.015.747-3.562 2.24-4.64 1.495-1.08 3.654-1.623 6.478-1.635h2.338v-1.09c0-.878-.225-1.58-.676-2.108-.452-.528-1.163-.79-2.136-.79-.856 0-1.526.204-2.013.614-.486.41-.73.973-.73 1.687h-5.08c0-1.1.34-2.12 1.02-3.058.68-.938 1.64-1.673 2.883-2.206 1.242-.534 2.637-.8 4.184-.8 2.343 0 4.204.588 5.58 1.766 1.378 1.177 2.066 2.833 2.066 4.965v8.245c.012 1.805.264 3.17.756 4.096v.3h-5.133zm-4.2-3.533c.75 0 1.44-.167 2.074-.5.633-.335 1.102-.783 1.406-1.346v-3.268h-1.898c-2.543 0-3.897.878-4.06 2.636l-.018.3c0 .632.222 1.153.668 1.564.445.41 1.054.615 1.828.615zm19.336-2.672l3.533-12.815h5.308L161.932 49h-4.852l-6.416-19.02h5.31l3.532 12.815zm19.6 6.557c-2.79 0-5.06-.856-6.812-2.567-1.752-1.71-2.628-3.99-2.628-6.838v-.492c0-1.91.37-3.618 1.107-5.124.74-1.505 1.785-2.665 3.138-3.48 1.355-.814 2.9-1.22 4.633-1.22 2.602 0 4.65.82 6.144 2.46 1.494 1.64 2.24 3.967 2.24 6.978v2.075h-12.11c.163 1.242.66 2.238 1.485 2.988.826.75 1.872 1.126 3.137 1.126 1.956 0 3.486-.71 4.587-2.127l2.496 2.794c-.76 1.078-1.793 1.92-3.093 2.522-1.3.604-2.742.906-4.325.906zm-.58-15.61c-1.008 0-1.826.34-2.453 1.02-.627.68-1.028 1.652-1.204 2.918h7.066v-.405c-.024-1.125-.33-1.995-.915-2.61-.584-.615-1.416-.923-2.495-.923zM195.17 49h-5.098V22h5.098v27zm28.705-6.293c0-1.418-.498-2.54-1.494-3.366-.996-.825-2.82-1.61-5.467-2.355-2.648-.744-4.582-1.555-5.8-2.434-1.735-1.24-2.602-2.87-2.602-4.886 0-1.957.805-3.548 2.417-4.772 1.612-1.225 3.672-1.837 6.18-1.837 1.7 0 3.22.328 4.56.984 1.343.655 2.383 1.57 3.12 2.74.74 1.173 1.108 2.48 1.108 3.92h-2.18c0-1.745-.597-3.148-1.792-4.21-1.196-1.06-2.8-1.59-4.817-1.59-1.958 0-3.516.437-4.676 1.31-1.16.873-1.74 2.013-1.74 3.42 0 1.3.52 2.36 1.564 3.18 1.043.82 2.713 1.544 5.01 2.17 2.296.628 4.037 1.28 5.22 1.953 1.184.673 2.074 1.48 2.672 2.417.598.937.897 2.045.897 3.322 0 2.016-.806 3.633-2.417 4.85-1.612 1.22-3.736 1.83-6.372 1.83-1.805 0-3.46-.323-4.966-.967-1.506-.645-2.65-1.547-3.428-2.707-.78-1.16-1.17-2.49-1.17-3.99h2.163c0 1.804.674 3.228 2.022 4.27 1.346 1.044 3.14 1.565 5.378 1.565 1.992 0 3.59-.44 4.798-1.318 1.207-.88 1.81-2.045 1.81-3.498zm5.185-3.498c0-1.83.355-3.476 1.064-4.94.71-1.465 1.71-2.605 3.006-3.42 1.295-.814 2.763-1.22 4.403-1.22 2.53 0 4.582.887 6.153 2.662 1.57 1.775 2.355 4.128 2.355 7.058v.44c0 1.84-.355 3.494-1.064 4.965-.71 1.47-1.71 2.604-2.998 3.4-1.29.798-2.76 1.197-4.412 1.197-2.52 0-4.567-.888-6.143-2.664-1.576-1.775-2.364-4.127-2.364-7.057v-.42zm2.11.58c0 2.273.59 4.14 1.766 5.598 1.178 1.46 2.722 2.188 4.632 2.188 1.9 0 3.437-.73 4.615-2.188 1.177-1.46 1.766-3.384 1.766-5.775v-.404c0-1.454-.268-2.784-.807-3.99-.54-1.208-1.295-2.143-2.268-2.805-.973-.662-2.086-.993-3.34-.993-1.875 0-3.404.735-4.588 2.206-1.183 1.47-1.775 3.395-1.775 5.774v.387zm26.244 7.786c1.465 0 2.692-.413 3.683-1.24.99-.825 1.525-1.895 1.607-3.207h2.022c-.06 1.16-.423 2.217-1.09 3.172-.67.955-1.557 1.702-2.664 2.24-1.108.54-2.294.81-3.56.81-2.496 0-4.474-.868-5.933-2.602-1.46-1.734-2.188-4.066-2.188-6.996v-.633c0-1.874.328-3.532.984-4.974.656-1.44 1.596-2.554 2.82-3.34 1.225-.785 2.658-1.177 4.298-1.177 2.086 0 3.806.62 5.16 1.862 1.353 1.242 2.077 2.877 2.17 4.904h-2.02c-.095-1.488-.63-2.69-1.61-3.603-.978-.914-2.21-1.37-3.7-1.37-1.898 0-3.372.684-4.42 2.056-1.05 1.37-1.574 3.29-1.574 5.764v.615c0 2.425.525 4.318 1.574 5.677 1.048 1.36 2.528 2.04 4.438 2.04zM271.286 49h-2.11V29.98h2.11V49zm-2.48-24.52c0-.4.13-.737.387-1.012.258-.276.61-.413 1.055-.413.445 0 .8.137 1.064.413.263.275.395.612.395 1.01 0 .4-.132.733-.395 1.002-.264.27-.62.405-1.064.405-.445 0-.797-.135-1.055-.405-.257-.27-.386-.603-.386-1zM289.005 49c-.21-.598-.346-1.482-.404-2.654-.74.96-1.68 1.702-2.822 2.223-1.142.52-2.352.782-3.63.782-1.828 0-3.307-.51-4.438-1.53-1.13-1.02-1.696-2.308-1.696-3.867 0-1.85.77-3.316 2.31-4.394 1.542-1.078 3.69-1.617 6.444-1.617h3.814V35.78c0-1.358-.42-2.427-1.257-3.207-.838-.78-2.06-1.17-3.665-1.17-1.465 0-2.678.376-3.64 1.126-.96.75-1.44 1.652-1.44 2.706l-2.11-.017c0-1.513.704-2.823 2.11-3.93 1.406-1.107 3.135-1.66 5.186-1.66 2.12 0 3.794.53 5.018 1.59 1.225 1.06 1.855 2.54 1.89 4.438v9c0 1.84.193 3.217.58 4.13V49h-2.25zm-6.61-1.512c1.407 0 2.664-.34 3.77-1.02 1.108-.68 1.914-1.587 2.418-2.724V39.56h-3.762c-2.097.024-3.738.408-4.922 1.152-1.183.744-1.775 1.767-1.775 3.067 0 1.066.396 1.95 1.187 2.654.79.703 1.82 1.054 3.085 1.054zM298.638 49h-2.11V22h2.11v27zm8.068 0h-2.11V29.98h2.11V49zm-2.478-24.52c0-.4.128-.737.386-1.012.258-.276.61-.413 1.055-.413.445 0 .8.137 1.063.413.265.275.397.612.397 1.01 0 .4-.132.733-.396 1.002-.262.27-.617.405-1.062.405-.445 0-.797-.135-1.055-.405-.258-.27-.386-.603-.386-1zm11.46.63v4.87h3.938v1.723h-3.938v12.674c0 1.055.19 1.84.572 2.355.38.516 1.015.774 1.906.774.352 0 .92-.06 1.705-.176l.09 1.723c-.552.2-1.302.3-2.25.3-1.442 0-2.49-.42-3.147-1.258-.657-.838-.985-2.072-.985-3.7V31.703h-3.498V29.98h3.498v-4.87h2.11zm15.663 24.242c-1.618 0-3.08-.4-4.386-1.196-1.307-.797-2.323-1.907-3.05-3.33-.727-1.425-1.09-3.02-1.09-4.79v-.757c0-1.83.355-3.475 1.064-4.94.71-1.465 1.696-2.616 2.962-3.454 1.265-.838 2.636-1.257 4.113-1.257 2.308 0 4.14.787 5.493 2.363 1.354 1.576 2.03 3.73 2.03 6.46v1.178h-13.57v.405c0 2.156.618 3.952 1.855 5.388 1.237 1.435 2.792 2.153 4.668 2.153 1.125 0 2.118-.205 2.98-.615.86-.41 1.643-1.065 2.346-1.968l1.318 1.002c-1.547 2.238-3.79 3.358-6.732 3.358zm-.387-17.93c-1.582 0-2.915.58-4 1.74-1.083 1.16-1.742 2.72-1.977 4.676h11.41v-.23c-.06-1.827-.582-3.315-1.566-4.463-.984-1.15-2.273-1.723-3.867-1.723z"/><path fill="url(#a)" d="M30 60.8V34L2 6V2h64v4L38 34v26.8L54 64v4H14v-4l16-3.2zm14-42.484c3.314 0 6-2.686 6-6s-2.686-6-6-6-6 2.686-6 6 2.686 6 6 6z"/></g></svg>
